<?xml version="1.0" encoding="UTF-8" standalone="no"?><!-- Generator: Gravit.io --><svg xmlns="http://www.w3.org/2000/svg" xmlns:xlink="http://www.w3.org/1999/xlink" style="isolation:isolate" viewBox="0 0 500 500" width="500pt" height="500pt"><defs><clipPath id="_clipPath_BVHfMdzoevGQ7fAKhQ0YhSFOM4UBI3nD"><rect width="500" height="500"/></clipPath></defs><g clip-path="url(#_clipPath_BVHfMdzoevGQ7fAKhQ0YhSFOM4UBI3nD)"><rect width="500" height="500" style="fill:rgb(0,0,0)" fill-opacity="0"/><path d=" M 362.299 438.517 L 270.727 374.795 C 259.287 366.835 240.713 366.835 229.273 374.795 L 137.701 438.517 C 126.261 446.477 120.251 442.11 124.286 428.771 L 156.592 321.989 C 160.627 308.65 154.888 290.984 143.782 282.565 L 54.881 215.165 C 43.776 206.745 46.072 199.679 60.005 199.395 L 171.544 197.122 C 185.477 196.838 200.505 185.92 205.08 172.757 L 241.709 67.38 C 246.285 54.216 253.715 54.216 258.291 67.38 L 294.92 172.757 C 299.495 185.92 314.523 196.838 328.456 197.122 L 439.995 199.395 C 453.928 199.679 456.224 206.745 445.119 215.165 L 356.218 282.565 C 345.112 290.984 339.373 308.65 343.408 321.989 L 375.714 428.771 C 379.749 442.11 373.739 446.477 362.299 438.517 Z " fill="rgb(255,255,255)" fill-opacity="0.7"/></g></svg>